<svg
    xmlns="http://www.w3.org/2000/svg"
    viewBox="0 0 100 100"
    id="vector">
    <path
        id="path"
        d="M 78.96 44.68 C 82.913 46.917 86.614 49.573 90 52.6 C 88.8 40.23 80.11 29.32 67.4 25.92 C 67.17 25.86 66.93 25.82 66.7 25.76 C 71.078 24.546 75.574 23.805 80.11 23.55 C 70.52 15.65 56.66 14.08 45.26 20.66 C 45.05 20.78 44.86 20.92 44.66 21.04 C 46.904 17.087 49.566 13.385 52.6 10 C 40.23 11.2 29.32 19.89 25.92 32.6 C 25.86 32.82 25.81 33.03 25.76 33.25 C 24.552 28.885 23.815 24.402 23.56 19.88 C 15.66 29.47 14.09 43.33 20.67 54.73 C 20.79 54.93 20.92 55.12 21.04 55.32 C 17.088 53.086 13.387 50.434 10 47.41 C 11.2 59.78 19.89 70.69 32.6 74.09 C 32.83 74.15 33.06 74.19 33.29 74.25 C 28.912 75.464 24.416 76.205 19.88 76.46 C 29.47 84.36 43.33 85.93 54.73 79.35 C 54.94 79.23 55.13 79.09 55.33 78.97 C 53.091 82.922 50.436 86.623 47.41 90.01 C 59.78 88.81 70.69 80.12 74.09 67.41 C 74.15 67.18 74.19 66.95 74.25 66.72 C 75.464 71.095 76.205 75.587 76.46 80.12 C 84.36 70.53 85.93 56.67 79.35 45.27 C 79.23 45.07 79.1 44.88 78.97 44.67 Z M 37.42 50 C 37.42 42.91 43.17 37.17 50.25 37.17 C 57.33 37.17 63.09 42.91 63.09 50 C 63.09 57.09 57.34 62.83 50.26 62.83 C 43.18 62.83 37.42 57.09 37.42 50 Z"
        fill="#000000"
        stroke-width="1"/>
</svg>
