<svg id="vector" xmlns="http://www.w3.org/2000/svg" width="200" height="200" viewBox="0 0 2226 2222"><path fill="#000000" d="M897.5,5.4c-147.2,30.2 -279,85.3 -403,168.7 -61.7,41.4 -111.1,82.3 -166.6,137.8 -56.8,56.9 -97.3,106.3 -140.8,171.6 -134,201.3 -198.3,437.9 -185,681.5 16.1,295.5 147.4,569.7 368.9,770.1 47,42.5 103.1,84.6 159,119.4 36.6,22.8 97.5,55 136,72 112.2,49.4 230.4,79.9 352,90.9 36.3,3.3 54.7,4 101.5,4 58.5,-0 88.9,-1.8 142.3,-8.4 285.9,-35.8 548.1,-182.7 730.6,-409.3 111,-137.9 188.4,-302.1 223.5,-474.2 4.5,-22.3 10.1,-53.8 10.1,-57.3l0,-2.2 -69.8,-0 -69.7,-0 -3.4,17.7c-45.2,238 -179.5,452.7 -375.2,599.8 -209,157 -469.1,223.3 -729.9,185.9 -253.2,-36.2 -484.5,-173 -640.2,-378.4 -80.1,-105.8 -136.5,-222.8 -169.3,-351.5 -13.3,-52.1 -22,-105.1 -27.2,-165.5 -1.4,-16.5 -1.8,-31.2 -1.8,-75.5 0,-57.5 0.7,-70.5 5.6,-112.7 23.7,-205.8 110.7,-395.8 251.9,-550.3 17.9,-19.6 55.3,-56.2 75.5,-73.9 125.5,-109.9 276.7,-186.5 436,-221 6.6,-1.5 13,-2.9 14.3,-3.1l2.2,-0.5 0,-70.5c0,-38.8 -0.3,-70.5 -0.7,-70.4 -0.5,-0 -12.5,2.4 -26.8,5.3z" stroke="#00000000" id="path_0"/><path fill="#000000" d="M1508,180.9c-17.6,3.8 -35.5,13.2 -47.7,25 -7.9,7.7 -183.2,208.4 -188.1,215.5 -5.7,8.1 -10.5,18.1 -13.8,29.1 -2.6,8.4 -2.8,10.3 -2.8,27 -0.1,20.9 1.4,28.4 8.8,44 8.8,18.5 9.5,19.2 95.2,94.2 43.1,37.7 78.4,69 78.4,69.5 0,1.1 -22.6,44.5 -34.8,66.8 -53.1,97.1 -110.7,180.5 -180.8,262.1 -78.1,90.9 -150.7,157.8 -247.7,228.5 -20.2,14.7 -22.9,16.5 -24.4,15.3 -1,-0.8 -37.6,-32.7 -81.3,-71 -43.8,-38.3 -82.3,-71.4 -85.6,-73.6 -36.7,-24.9 -85.9,-22.6 -120.1,5.5 -5.8,4.8 -180.3,203.1 -191.4,217.5 -5.6,7.2 -13.4,23.5 -16.1,33.7 -2,7.3 -2.3,10.9 -2.3,25.5 0,14.7 0.3,18.2 2.3,25.5 3.9,14.4 10.8,27.6 20.6,39.4 2.3,2.8 33.1,30.4 68.6,61.5 67.3,58.9 75.2,65.1 96.3,76 26.3,13.5 54.7,21.1 79.2,21.2 5,0.1 29.7,-0.3 55,-0.9 54.2,-1.1 54.4,-1.2 86.2,-11.7 119,-39.7 222.2,-94.6 327.3,-174.3 77.6,-58.8 158.7,-135.6 233.9,-221.6 153.7,-175.7 258.3,-357.2 317.6,-551.2 12.4,-40.5 26.5,-94.9 30.1,-115.7 2.2,-12.9 2.9,-48.3 1.4,-69.2 -0.6,-9.4 -1.6,-30.1 -2,-46 -0.6,-20.5 -1.3,-31.2 -2.5,-36.5 -4,-18.5 -13,-38.6 -24.2,-54.2 -7.9,-11.2 -28.6,-31.2 -74.9,-72.4 -40.8,-36.4 -76.2,-65.5 -89.4,-73.4 -8.5,-5.1 -22.8,-10.3 -33,-11.9 -10,-1.6 -28.3,-1.2 -38,0.8z" stroke="#00000000" id="path_1"/><path fill="#000000" d="M1034.4,569.4c-77.2,26.3 -161.7,98.5 -220.7,188.6 -40,61.3 -63.9,125.7 -64.1,173 -0.1,12.6 0.1,13.9 2.6,19.2 3.2,6.9 9.2,12.9 16.6,16.5 5,2.4 6.8,2.8 14.7,2.8 11,-0.1 16,-2.1 23.9,-9.5 7.4,-7 9.6,-12.5 10.8,-27 5.2,-63.6 48.4,-144 113.3,-210.9 41.5,-42.7 85.9,-73.4 125.7,-87 7,-2.3 14.7,-5.6 17.2,-7.1 17.6,-11.2 19.7,-40.1 4,-53.9 -7.2,-6.4 -12.6,-8.5 -22.4,-8.8 -7.9,-0.4 -9.4,-0.1 -21.6,4.1z" stroke="#00000000" id="path_2"/><path fill="#000000" d="M1086,731.3c-10.6,3 -37.7,19.1 -58.5,34.7 -42.9,32.2 -76.3,72.8 -100.5,122.1 -16.1,32.9 -19.9,48.2 -15,61.1 2.8,7.5 9.6,15 16.8,18.5 5.1,2.5 6.8,2.8 15.7,2.8 9.5,-0 10.3,-0.2 16.4,-3.5 7.9,-4.3 12.9,-10.4 16.6,-20.2 11.2,-29.8 23.6,-52.2 42.4,-76.6 21,-27 52.6,-53.9 81.6,-69.3 14.3,-7.5 18.1,-10.4 22,-16.2 15.1,-22.8 0.7,-52.5 -26.2,-54.3 -3.9,-0.2 -8.7,0.2 -11.3,0.9z" stroke="#00000000" id="path_3"/><path fill="#000000" d="M1639.9,1191.5c-6.6,2.1 -13.7,7.3 -17.5,12.8 -1.8,2.6 -4.8,9.6 -6.9,16.4 -13.6,43.3 -34.3,77.3 -67.4,110.3 -17.5,17.5 -28.9,26.7 -46.1,37.4 -14.9,9.2 -16.6,10.5 -20.5,16.1 -9.7,14 -7.7,33.5 4.7,45.1 7.5,7 12.5,8.9 23.8,8.9 8.8,-0 10,-0.2 16,-3.3 9.5,-4.9 32.9,-20.7 45.5,-30.8 14.1,-11.3 37.6,-34.7 49.3,-49.2 27.8,-34.3 47.2,-70 60.2,-110.9 3.8,-12 4.2,-14.1 3.8,-21.5 -0.4,-10 -3,-16.1 -9.8,-22.8 -6.5,-6.6 -12.8,-9.3 -22.5,-9.6 -5.2,-0.3 -9.6,0.1 -12.6,1.1z" stroke="#00000000" id="path_4"/><path fill="#000000" d="M1810.3,1200.4c-5.9,1.9 -10.4,4.9 -15.3,10.2 -5.8,6.4 -7.6,11.1 -9.4,25.1 -3.2,24.8 -11.4,49.8 -26,79.8 -18.2,37.4 -40.9,71.1 -70.2,104.5 -12.4,14.2 -40.5,41.6 -53.5,52.2 -35.4,29 -71.5,49 -100.9,55.8 -19.7,4.6 -31.6,21.8 -28,40.5 3.9,19.8 21.8,31.5 42.2,27.5 14.2,-2.7 36.9,-11.2 56.2,-20.9 21.3,-10.8 33.8,-18.3 52.2,-31.7 48.6,-35.4 93.9,-83.1 130.4,-137.4 37.8,-56.1 64.6,-123.6 66.7,-167.5 0.5,-10.7 0.3,-12.6 -1.6,-17.7 -2.9,-7.5 -9.4,-14.7 -16.8,-18.3 -6.9,-3.4 -19,-4.4 -26,-2.1z" stroke="#00000000" id="path_5"/></svg>